<?xml version="1.0" encoding="utf-8"?>
<!-- Generator: Adobe Illustrator 21.0.0, SVG Export Plug-In . SVG Version: 6.00 Build 0)  -->
<svg version="1.1" id="Layer_1" xmlns="http://www.w3.org/2000/svg" xmlns:xlink="http://www.w3.org/1999/xlink" x="0px" y="0px"
	 viewBox="0 0 148 23.1" style="enable-background:new 0 0 148 23.1;" xml:space="preserve">
<style type="text/css">
	.st0{fill:#FFFFFF;}
</style>
<g>
	<g>
		<g>
			<g>
				<g>
					<g>
						<path class="st0" d="M47.9,5.5c-1.1,0-1.9-0.3-2-1c-0.1-0.2,0-0.3,0.2-0.2c1.6,0.1,4.6-0.6,5.7-0.5c0.8,0,1.5,0.2,1.7,0.9
							c0,0.1,0,0.3-0.2,0.3c-0.9-0.1-2,0.1-3.1,0.3c0,0.4-0.1,1-0.6,2c-1.1,2-2.6,4.6-4.1,7.9c-0.1,0.2-0.2,0.2-0.3,0
							c-0.3-0.2-0.5-0.8-0.2-1.6c0.4-1.5,2.4-5.5,4.1-8C48.6,5.5,48.3,5.5,47.9,5.5z"/>
						<path class="st0" d="M54.8,7.9c0.2-0.2,0.3-0.3,0.4-0.1c0.3,0.3,0.4,1.1,0,2c-0.4,0.8-1.3,2.2-1.7,3.2c-0.5,1-0.5,1.8,0.1,1.8
							c0.7,0,1.7-1.3,2.4-2.5c0.1-0.2,0.2-0.2,0.3,0s0.1,0.6-0.2,1.1c-0.5,1-1.6,2-2.6,2S52,14.7,52,13.9c-0.6,0.7-1.4,1.4-2.3,1.4
							c-1.7,0-2-2.3-0.5-4.5s2.9-2.9,3.8-2.9c0.8,0,1.1,0.6,1.1,1.3C54.4,8.6,54.6,8.2,54.8,7.9z M53.4,8.7c-0.6,0-1.9,1.1-2.9,2.7
							s-1.2,3.2-0.5,3.2s1.7-1.1,2.6-2.7C53.7,9.9,53.9,8.7,53.4,8.7z"/>
						<path class="st0" d="M58.5,8.8c0.1-0.7,0.3-1,0.7-1.4c0.4-0.3,0.8-0.4,1-0.3c0.2,0.2,0.1,0.4-0.1,0.8C60,8,60,8.1,59.9,8.2
							C59.7,10,60,11.4,60,12.6c0,0.7-0.2,1.5-0.8,1.9c1.2-0.4,2-1.6,2.4-2.5c0.1-0.2,0.3-0.1,0.3,0c0.1,0.2,0,0.7-0.3,1.2
							c-0.7,1.3-2,2-3.2,2c-1,0-2.1-0.2-2.7-1.4c-0.4-0.8-0.4-2,0.2-2.5c0.2-0.2,0.3-0.1,0.4,0.2c0,0.1,0,0.3,0,0.4
							C57.1,11,57.9,9.8,58.5,8.8z M56.5,12.9c0.3,1,0.8,1.8,1.4,1.6c0.8-0.3,0.6-3.1,0.5-4.6C57.9,11,57.2,12,56.5,12.9z"/>
						<path class="st0" d="M62.3,7.4c-0.2-0.3-0.1-0.4,0.2-0.3c0.5,0,1,0,1.5-0.1c0.6-1,1.1-1.9,1.4-2.3c0.2-0.2,0.3-0.2,0.4,0
							C66,5.2,66,5.8,65.6,6.8c0.7,0,1,0.3,1.1,0.6c0.1,0.2,0,0.3-0.2,0.3c-0.4,0-1,0-1.4,0.1c-0.7,1.2-1.7,3-2.4,4.5
							c-0.6,1.3-0.4,2.5,0.3,2.5c0.8,0,1.9-1.3,2.5-2.6c0.1-0.2,0.3-0.3,0.4,0s0,0.6-0.2,1c-0.2,0.5-1.4,2.1-2.9,2.1
							c-1.2,0-2.2-1.4-1.3-3.5c0.4-0.9,1.1-2.4,2-3.9C62.8,7.9,62.4,7.6,62.3,7.4z"/>
						<path class="st0" d="M68.6,15.6c-1,2.4-2.3,5.4-3.8,5.9c-0.3,0.1-0.7,0.1-1-0.4c-0.3-0.5-0.7-1.2-0.3-2.2
							c0.6-1.6,2.1-2.7,3.9-3.4c0.2-0.4,0.3-0.9,0.6-1.3c-0.6,0.6-1.3,1-2,1c-1.3-0.1-1.3-1.4-0.9-2.6s1.3-2.9,2.5-4.6
							c0.1-0.2,0.3-0.2,0.5,0c0.4,0.6,0.3,1.3-0.3,2.4c-0.7,1-1,1.8-1.4,2.6c-0.3,0.9-0.3,1.5,0.1,1.6c0.7,0,1.6-1.1,2.6-2.7
							c0.8-1.3,1.6-3,2.2-3.9c0.2-0.2,0.3-0.3,0.5-0.1c0.3,0.3,0.4,1.1-0.1,2c-0.6,1-1.6,3.3-2.4,5c1.4-0.8,2.5-1.8,3.2-2.8
							c0.1-0.1,0.3-0.1,0.3,0c0,0.2,0,0.6-0.3,1C71.4,14.3,70.1,15,68.6,15.6z M64.1,20.6c0.2,0.3,1.7-1.6,2.9-4.3
							C64.6,17.6,63.8,20.1,64.1,20.6z"/>
						<path class="st0" d="M78.5,4.9c-0.1-0.2,0-0.3,0.2-0.3c1.3-0.1,2.9-1,4.1-1.1c0.9,0,1.8,0.2,2.2,1.5c0.3,1.2,0,2.3-0.7,3
							c-0.5,0.7-1.5,1.6-2.9,2.2c0.3,0.2,0.7,0.4,0.9,0.8c0.4,0.6,0.3,1.6-0.4,2.5s-2.2,1.5-3.2,1.7c-0.7,0.1-1.1,0.1-1.5-0.1
							c-0.3-0.2-0.7-0.5-0.9-0.8c-0.3-0.4-0.4-0.7,0-1.9c0.7-2,2.1-4.7,3.5-6.7C79,5.6,78.6,5.2,78.5,4.9z M79.6,10.8
							c-0.5,0-0.9,0-1.1-0.1c-0.5,1-1,1.9-1.2,2.8c-0.2,0.7,0,0.9,0.6,0.8c1.2-0.1,2.7-0.9,3.5-1.9c0.7-0.8,0.7-1.6-1-1.7
							C80.1,10.7,79.8,10.7,79.6,10.8z M84.3,5.2c-0.3-1-2.2-0.1-3.4,0.3c0,0.4-0.1,1-0.6,1.8C80,8,79.4,8.8,78.9,9.8
							C82.5,8.9,84.8,6.4,84.3,5.2z"/>
						<path class="st0" d="M83.6,12.6c0.5-1.3,1.7-3.5,2.4-4.4c0.2-0.2,0.3-0.3,0.4-0.1c0.3,0.3,0.4,1.1,0,2c-0.4,0.8-1.1,2-1.5,2.9
							c-0.4,1-0.4,1.8,0.2,1.7c0.8,0,1.8-1.3,2.4-2.5c0.1-0.2,0.2-0.1,0.3,0c0.1,0.3,0.1,0.7-0.1,1.1c-0.6,1.1-1.7,1.9-2.7,1.9
							C83.5,15.2,83.2,14.1,83.6,12.6z M87.7,7.8c-0.2,0.3-0.7,0.3-1-0.2s-0.2-1,0.1-1.3c0.3-0.3,0.8-0.1,1,0.4
							C88.1,7.1,88,7.6,87.7,7.8z"/>
						<path class="st0" d="M88.4,7.4c-0.2-0.3-0.1-0.4,0.2-0.3c0.5,0,1,0,1.5-0.1c0.6-1,1.1-1.9,1.4-2.3c0.2-0.2,0.3-0.2,0.4,0
							c0.2,0.5,0.2,1.1-0.2,2c0.7,0,1,0.3,1.1,0.6c0.1,0.2,0,0.3-0.2,0.3c-0.4,0-1,0-1.4,0.1c-0.7,1.2-1.7,3-2.4,4.5
							c-0.6,1.3-0.4,2.5,0.3,2.5c0.8,0,1.9-1.3,2.5-2.6c0.1-0.2,0.3-0.3,0.4,0s0,0.6-0.2,1c-0.2,0.5-1.4,2.1-2.9,2.1
							c-1.2,0-2.2-1.4-1.3-3.5c0.4-0.9,1.1-2.4,2-3.9C88.9,7.9,88.5,7.6,88.4,7.4z"/>
						<path class="st0" d="M93.3,14.7c1.5,0.1,2.9-1.4,3.6-2.6c0.1-0.1,0.2-0.1,0.3,0s0,0.7-0.3,1.1c-0.8,1.1-2.2,2-3.6,2
							c-2.3,0-3.1-2.3-2-4.6c1.2-2.3,3-3.3,3.9-2.8c0.5,0.3,0.8,0.6,1.1,1c0.3,0.4,0.2,1.6-0.6,2.5c-0.9,1.1-2.1,1.6-3.4,0.5
							C91.9,13.5,92.3,14.7,93.3,14.7z M94.8,10.5c0.6-0.8,1-1.7,0.7-1.9c-0.4-0.3-1.9,0.8-2.7,2.5c0,0.1-0.1,0.2-0.1,0.3
							C93.5,12,94.3,11.2,94.8,10.5z"/>
						<path class="st0" d="M99.3,8.8c0.1-0.7,0.3-1,0.7-1.4c0.4-0.3,0.8-0.4,1-0.3c0.2,0.2,0.1,0.4-0.1,0.8
							c-0.1,0.1-0.1,0.2-0.2,0.3c-0.1,1.7,0.2,3.1,0.2,4.3c0,0.7-0.2,1.5-0.8,1.9c1.2-0.4,2-1.6,2.4-2.5c0.1-0.2,0.3-0.1,0.3,0
							c0.1,0.2,0,0.7-0.3,1.2c-0.7,1.3-2,2-3.2,2c-1,0-2.1-0.2-2.7-1.4c-0.4-0.8-0.4-2,0.2-2.5c0.2-0.2,0.3-0.1,0.4,0.2
							c0,0.1,0,0.3,0,0.4C98,11,98.8,9.8,99.3,8.8z M97.4,12.9c0.3,1,0.8,1.8,1.4,1.6c0.8-0.3,0.6-3.1,0.5-4.6
							C98.8,11,98.1,12,97.4,12.9z"/>
					</g>
				</g>
			</g>
		</g>
	</g>
	
		<image style="overflow:visible;enable-background:new    ;" width="222" height="1571" xlink:href="../Resources/2699ACAE2605AC5A.png"  transform="matrix(-5.974097e-18 3.252147e-02 -3.593365e-02 -6.600905e-18 102.0443 15.7491)">
	</image>
</g>
</svg>
